<svg id="manu" width="572" height="561" viewBox="0 0 572 561" fill="none" xmlns="http://www.w3.org/2000/svg">
    <g id="torse">
        <path id="path55"
            d="M309.579 334.037L315 255H257L261.301 333.756C261.301 333.756 279.424 344.022 286.005 344C292.306 343.978 309.579 334.037 309.579 334.037Z"
            fill="#262626" />
        <path id="path8" fill-rule="evenodd" clip-rule="evenodd"
            d="M273 112L263 123V144.757C263 144.757 263 152.991 273 152.991H299.5C309 152.991 309 145.134 309 145.134L308.5 123L299.5 112"
            fill="#DD9974" />
        <path id="path56"
            d="M357 157.31L347.206 152.101L329.179 144.377L309.168 135.012L283.545 261.342L286.09 295.158C286.09 295.158 287.944 310.918 291.612 326.627C294.237 337.845 299.327 346.294 306.482 348.278C312.785 350.01 322.234 348.127 329.419 346.596C337.837 344.804 345.412 341.682 345.412 341.682L342.446 287.585L345.412 226.449L357 157.31Z"
            fill="#262626" stroke="black" stroke-width="0.4" />
        <path id="path57"
            d="M214 157.31L224.794 152.101L242.821 144.377L262.832 135.012L288.455 261.362L286.06 274.897C287.333 283.96 286.301 288.592 285.92 295.178C285.92 295.178 284.066 310.948 280.388 326.657C277.763 337.875 272.673 346.324 265.518 348.308C259.215 350.04 249.766 348.157 242.581 346.626C237.13 345.418 231.779 343.777 226.588 341.712L229.554 287.605L226.588 226.459L214 157.31Z"
            fill="#262626" stroke="black" stroke-width="0.4" />
        <path id="path58" d="M310.55 204.456H261.57V152.423H310.55V204.456Z" fill="white" />
        <path id="path59"
            d="M310.099 132.857C310.099 132.857 305.721 139.231 299.157 144.619C295.089 147.872 290.7 150.691 286.06 153.027C284.828 152.423 278.535 149.201 272.953 144.619C266.4 139.231 262.021 132.857 262.021 132.857C262.021 132.857 260.417 144.357 262.021 156.381C263.293 165.907 267.462 179.915 267.462 179.915L286.06 153.46L304.648 179.915C304.648 179.915 308.827 165.917 310.099 156.381C311.703 144.357 310.099 132.857 310.099 132.857Z"
            fill="#A7A9AC" />
        <path id="path60"
            d="M292.373 152.423H279.747L275.458 160.429L282.072 173.329H290.038L296.652 160.439L292.373 152.423Z"
            fill="#090A47" />
        <path id="path61"
            d="M294.387 164.85L296.652 160.429L292.373 152.423H286.371L286.06 152.584L285.739 152.423H279.737L275.468 160.429L277.723 164.86L286.06 152.997L294.387 164.85Z"
            fill="#03466B" />
        <path id="path62" d="M290.038 173.329H282.072L275.458 221.797H296.652L290.038 173.329Z" fill="#090A47" />
        <path id="path63"
            d="M309.669 217.889L315.11 153.954L286.05 213.499L257 153.954L261.309 217.638L286.06 274.897L309.669 217.889Z"
            fill="#332E2E" />
        <path id="path64"
            d="M286.2 274.897L310.831 145.364L331.443 165.686L323.667 169.593L334.169 180.932L286.2 274.897Z"
            fill="#414042" />
        <path id="path65"
            d="M286.06 274.897L261.269 145.364L240.657 165.686L248.443 169.593L237.941 180.932L286.06 274.897Z"
            fill="#414042" />
        <path id="path66"
            d="M288.976 227.456C288.996 227.859 288.936 228.252 288.806 228.634C288.665 229.007 288.455 229.359 288.184 229.641C287.914 229.933 287.583 230.165 287.212 230.326C286.852 230.487 286.451 230.568 286.05 230.568C285.659 230.568 285.258 230.487 284.898 230.326C284.527 230.165 284.196 229.933 283.926 229.641C283.655 229.359 283.445 229.007 283.304 228.634C283.164 228.252 283.114 227.859 283.134 227.456C283.174 226.711 283.505 226.006 284.046 225.492C284.587 224.969 285.309 224.687 286.05 224.687C286.802 224.687 287.523 224.969 288.064 225.492C288.605 226.006 288.936 226.711 288.976 227.456Z"
            fill="#231F20" />
        <path id="path67"
            d="M288.976 248.543C288.976 248.926 288.896 249.308 288.756 249.671C288.605 250.023 288.395 250.346 288.114 250.628C287.844 250.899 287.523 251.111 287.172 251.262C286.812 251.403 286.431 251.484 286.05 251.484C285.669 251.484 285.289 251.403 284.928 251.262C284.577 251.111 284.256 250.899 283.976 250.628C283.705 250.346 283.495 250.023 283.345 249.671C283.204 249.308 283.124 248.926 283.124 248.543C283.124 247.768 283.435 247.012 283.976 246.469C284.527 245.915 285.278 245.603 286.05 245.603C286.822 245.603 287.573 245.915 288.114 246.469C288.665 247.012 288.976 247.768 288.976 248.543Z"
            fill="#231F20" />
        <path id="path68"
            d="M310.099 132.857C310.099 132.857 305.721 139 299.157 144.196C295.079 147.338 290.69 150.057 286.06 152.302C281.431 150.057 277.032 147.338 272.953 144.196C266.4 139 262.021 132.857 262.021 132.857C262.021 132.857 260.417 143.934 262.021 155.525C263.293 164.709 267.462 178.193 267.462 178.193L286.06 152.705L304.648 178.193C304.648 178.193 308.827 164.709 310.099 155.535C311.703 143.934 310.099 132.857 310.099 132.857Z"
            fill="white" />
        <path id="path69" d="M317.605 217.799H340.512V223.992H317.605V217.799Z" fill="#414042" />
        <path id="path70"
            d="M289.126 286.497C289.126 286.88 289.046 287.263 288.906 287.625C288.756 287.978 288.545 288.3 288.275 288.582C287.994 288.854 287.673 289.065 287.323 289.216C286.962 289.357 286.581 289.438 286.2 289.438C285.82 289.438 285.439 289.357 285.078 289.216C284.727 289.065 284.407 288.854 284.136 288.582C283.856 288.3 283.645 287.978 283.495 287.625C283.355 287.263 283.274 286.88 283.274 286.497C283.314 285.752 283.645 285.047 284.186 284.534C284.727 284.01 285.449 283.728 286.2 283.728C286.942 283.728 287.663 284.01 288.205 284.534C288.746 285.047 289.076 285.752 289.116 286.497H289.126Z"
            fill="#231F20" />

        <g id="cou">
            <circle class="pivot" cx="286" cy="143" r="1" fill="#DD9974" />
            <g id="tete">
                <g id="criniere">
                    <path id="path1"
                        d="M254.451 12.0479C249.699 12.6103 245.841 16.5473 242.928 18.9276C236.387 24.5018 234.177 30.1462 232.61 32.9986C230.59 36.7147 229.535 41.3648 230.389 47.7424C230.851 51.2275 231.464 56.0283 232.549 60.0457C233.383 63.129 234.297 66.2425 235.855 69.0346C237.794 72.5097 239.07 72.7005 240.094 75.0808C241.853 79.1785 241.993 84.1099 244.636 88.5491C245.67 90.2766 245.359 84.0396 245.138 81.4483C244.937 78.827 244.816 76.2157 244.786 73.5943C244.706 69.4665 244.324 65.3587 243.651 61.2911C242.817 56.5104 242.325 52.8847 240.064 48.5861C239.07 46.7079 239.361 39.1753 242.335 34.5252C245.871 28.6899 249.739 23.8389 254.793 19.5001C253.336 16.708 254.703 12.0177 254.461 12.0479H254.451Z"
                        fill="#46301A" stroke="black" stroke-width="0.4" />
                    <path id="path2"
                        d="M285.677 1C281.698 1 277.72 1.45195 273.832 2.20522C269.351 3.08904 264.709 4.18377 260.731 6.57412C258.068 8.17104 255.255 10.1998 253.889 13.0924C253.386 14.1469 253.527 15.6434 253.768 16.8888C253.899 17.5918 254.1 18.2848 254.351 18.9577L254.431 19.0984C254.451 19.1586 254.471 19.2289 254.492 19.2691C254.592 19.3896 254.682 19.4398 254.793 19.5001C255.024 19.6407 255.335 19.7713 255.737 19.9018C256.541 20.1831 257.666 20.4442 258.912 20.6149C261.404 20.9665 264.368 20.9564 266.035 19.4599C266.106 19.3896 266.156 19.3695 266.166 19.3695L266.276 19.49C266.447 19.711 266.668 20.2232 266.95 20.8459C267.633 22.5232 268.858 23.9293 270.436 24.8231C274.806 27.1331 278.182 30.7589 282.582 31.9139C287.395 33.1793 291.836 34.726 297.512 34.0832C301.109 33.6815 304.736 34.0732 309.377 31.4217C312.984 29.3628 315.415 25.6266 316.782 23.8389C318.208 23.7384 319.484 24.562 320.881 25.8275C322.328 27.1432 323.855 28.9008 325.734 30.3671C328.858 32.7977 329.843 37.3273 331.209 41.2543C332.294 44.3778 331.531 47.7524 330.174 52.2017C328.898 56.4099 326.809 60.7587 327.2 65.3084C327.914 73.5742 326.567 81.8501 326.065 88.0268C325.824 88.1574 326.045 88.298 326.065 88.0268C325.643 89.7141 326.889 90.377 327.723 88.991C328.396 87.8862 330.968 82.9548 330.898 79.7409C330.878 78.0637 332.897 73.4336 334.213 71.9673C334.916 71.1839 335.79 70.4607 336.182 69.3861C338.443 63.1993 340.05 56.8016 340.985 50.2934C341.537 45.7337 341.517 40.8827 340.06 36.4836C338.453 31.6025 335.097 27.4445 331.792 23.6079C328.145 19.5101 323.985 15.8945 319.424 12.8413C314.501 9.46665 309.196 6.67456 303.631 4.50517C299.15 2.71743 294.438 1.59255 289.645 1.16068C288.319 1.05021 287.003 1 285.677 1Z"
                        fill="#46301A" />
                    <path id="path3"
                        d="M326.065 88.0268C326.567 81.8501 327.924 73.5742 327.2 65.3084C326.809 60.7587 328.898 56.4099 330.174 52.2017C331.531 47.7625 332.294 44.3778 331.209 41.2543C329.843 37.3273 328.858 32.7977 325.744 30.3671C323.855 28.9008 322.328 27.1432 320.881 25.8275C319.484 24.562 318.198 23.7384 316.792 23.8389C315.415 25.6266 312.974 29.3628 309.377 31.4217C304.736 34.0732 301.109 33.6815 297.512 34.0832C291.846 34.726 287.395 33.1793 282.582 31.9139C278.182 30.7589 274.806 27.1231 270.436 24.8231C268.858 23.9293 267.633 22.5232 266.95 20.8459C266.668 20.2232 266.447 19.711 266.276 19.49C266.216 19.3997 266.166 19.3796 266.166 19.3796C266.156 19.3796 266.106 19.3896 266.035 19.47C264.368 20.9464 261.404 20.9665 258.912 20.6149C257.837 20.4743 256.772 20.2333 255.737 19.9018C255.406 19.8014 255.094 19.6708 254.793 19.5001C254.682 19.4499 254.582 19.3695 254.492 19.2691C254.471 19.2289 254.451 19.1586 254.431 19.0984L254.341 18.9577L254.16 18.4757C254.029 18.0739 253.879 17.5115 253.768 16.8888C253.527 15.6434 253.386 14.1469 253.889 13.0924C255.255 10.1998 258.068 8.17104 260.731 6.57412C264.709 4.18377 269.341 3.08904 273.832 2.20522C277.71 1.45195 281.698 1 285.667 1C287.003 1 288.329 1.06026 289.645 1.17074C294.448 1.60261 299.16 2.71743 303.631 4.50517C309.196 6.67456 314.501 9.46665 319.424 12.8413C323.985 15.8945 328.145 19.5101 331.792 23.6079C335.097 27.4445 338.453 31.6025 340.06 36.4836C341.517 40.8827 341.537 45.7337 340.985 50.2934C340.05 56.8016 338.443 63.1993 336.172 69.3861C335.79 70.4607 334.926 71.1839 334.213 71.9673C332.897 73.4336 330.878 78.0637 330.898 79.7409C330.968 82.9548 328.396 87.8862 327.723 88.991C326.889 90.377 325.643 89.7141 326.065 88.0268ZM326.065 88.0268C325.824 88.1574 326.045 88.298 326.065 88.0268Z"
                        stroke="black" stroke-width="0.4" />
                </g>
                <g id="oreille_droite">
                    <path id="path4" fill-rule="evenodd" clip-rule="evenodd"
                        d="M237.744 71.8166L234.951 70.4607C234.277 70.3603 233.584 70.4206 232.941 70.6315C232.288 70.8324 231.695 71.1839 231.193 71.6559C229.676 73.534 229.123 74.7995 229.164 76.6777C228.762 80.2833 229.103 83.9291 230.158 87.3941C230.761 91.0399 232.348 94.7359 234.92 98.4921C236.186 100.179 238.055 101.314 240.135 101.656C242.375 101.525 243.852 100.913 244.575 99.8379L242.928 84.7727C240.516 75.7938 241.049 77.1196 241.059 77.8327C241.772 78.3248 240.024 74.4781 237.744 71.8166Z"
                        fill="#DD9974" stroke="black" stroke-width="0.4" stroke-miterlimit="3.2" />
                    <path id="path5"
                        d="M232.168 76.6074C232.358 75.4925 232.76 75.0104 233.373 75.131C235.182 74.9301 236.95 77.4008 238.668 82.5632C237.09 83.4872 236.347 85.2247 236.226 86.1487C236.136 90.0154 237.161 91.5822 239.562 92.456"
                        stroke="#4C3B2A" stroke-width="1.63019" stroke-miterlimit="3.2" />
                </g>
                <g id="oreille_gauche">
                    <path id="path6" fill-rule="evenodd" clip-rule="evenodd"
                        d="M335.378 70.7721C337.82 69.5167 339.91 69.8481 341.025 71.7363C341.889 73.2227 343.526 75.0105 342.833 80.8859C342.753 87.0928 340.754 93.1088 337.097 98.1205C336.443 99.1349 335.559 99.9786 334.535 100.591C333.5 101.204 332.334 101.575 331.129 101.666C330.415 101.746 329.692 101.656 329.009 101.415C328.326 101.174 327.713 100.792 327.2 100.28L327.723 88.991L330.566 82.2217L331.199 78.1239L333.429 73.062L335.378 70.7721Z"
                        fill="#DD9974" stroke="black" stroke-width="0.4" stroke-miterlimit="3.2" />
                    <path id="path7"
                        d="M331.752 92.7071C333.018 92.8075 334.203 91.6726 335.308 89.2923C335.589 88.4085 335.7 87.4845 335.61 86.5605C335.529 85.6365 335.248 84.7426 334.806 83.9291L333.249 82.6335C333.992 78.8772 335.66 76.286 338.232 74.8498C339.437 75.4323 339.89 76.0148 339.598 76.5974"
                        stroke="#4C3B2A" stroke-width="1.63019" stroke-miterlimit="3.2" />
                </g>
                <g id="face">
                    <path id="path10" fill-rule="evenodd" clip-rule="evenodd"
                        d="M243.721 87.4845C244.183 92.3455 244.354 95.5293 244.826 103.916C244.736 109.088 245.822 113.799 248.885 119.131C252.565 125.535 257.244 127.082 262.921 131.806C267.515 135.63 269.424 139.054 275 141.207C278.928 142.724 280.483 143.005 285.637 142.965C291.273 143.156 296.694 142.047 298.225 141.207C299.756 140.368 302.073 139.359 305.349 135.583C306.223 134.578 306.745 134.147 309.076 132.369C314.049 128.683 317.937 125.449 320.7 122.657C323.654 119.594 325.573 115.687 326.206 111.488C327.08 102.7 327.502 97.5681 327.723 89.001L327.753 84.2605C327.602 75.9646 326.628 65.9211 328.547 57.0628C329.27 53.7384 331.219 50.655 331.46 47.18C331.601 45.2114 331.621 43.1927 331.209 41.2644C330.566 38.1007 329.35 35.0876 327.602 32.3859C325.854 29.7947 320.881 25.8376 320.881 25.8376C319.394 24.4214 318.028 23.7586 316.792 23.8489C316.792 23.8489 313.868 28.3585 311.678 29.7947C307.549 32.4863 302.425 33.6815 297.512 34.0933C293.122 34.4649 288.59 33.7418 284.391 32.406C280.282 31.02 276.414 28.9812 272.958 26.3498C270.335 24.4214 269.049 20.6852 266.035 19.47C263.283 18.3552 258.169 17.9132 254.793 19.5202C248.906 22.2922 245.248 28.72 242.345 34.5453C240.486 38.1609 239.532 42.1884 239.572 46.256C239.703 50.0725 242.114 53.4672 242.918 57.2034C243.862 61.5623 244.666 70.4909 244.666 70.4909C244.575 70.4909 244.877 77.8026 245.138 81.4483C245.269 83.5173 243.721 87.4945 243.721 87.4945V87.4845Z"
                        fill="#DD9974" stroke="black" stroke-width="0.4" stroke-miterlimit="3.2" />
                    <path id="path11"
                        d="M280.744 69.0949C282.221 70.8726 281.779 71.8368 281.538 73.2027C280.613 78.3048 281.759 85.0239 280.211 88.9911C279.468 90.9094 276.283 90.8089 275.871 92.8478C275.59 94.3041 275.188 96.1521 276.323 96.8752C277.84 97.8293 279.81 97.6485 280.854 98.5826C282.351 99.9485 284.13 101.505 286.149 101.545C287.244 101.515 288.309 101.244 289.294 100.762C290.268 100.28 291.132 99.5869 291.826 98.7433C292.82 97.2066 295.543 97.4778 296.568 95.9713C297.472 94.6455 296.266 93.1491 295.754 91.7128C295.292 90.3971 293.513 89.3828 293.242 88.9911"
                        stroke="black" stroke-width="0.976271" stroke-miterlimit="3.2" />
                </g>

                <g id="oeil_gauche">
                    <path id="path12"
                        d="M319.505 69.3962C320.268 67.8896 318.661 65.8106 317.797 64.3945C316.38 62.0443 313.898 60.2566 311.326 59.3326C308.855 58.4186 306.052 58.7601 303.44 59.0514C301.722 59.2221 300.014 59.6239 298.436 60.3068C297.14 60.8592 295.794 61.492 294.89 62.5666C294.166 63.4203 293.172 65.3085 293.684 66.3028C294.086 67.1063 295.382 66.6744 296.206 66.3028C297.381 65.7705 302.636 63.5308 304.143 63.9727C306.444 63.6513 308.775 63.7417 311.045 64.2439C311.045 64.2439 314.491 65.67 315.968 66.7849C316.842 67.4477 317.244 68.6831 318.229 69.1752C318.701 69.4263 319.243 69.8682 319.494 69.3962H319.505Z"
                        fill="#4C3B2A" stroke="#503C2C" stroke-width="0.110521" stroke-miterlimit="3.2" />
                    <path id="path19"
                        d="M313.235 75.0005C313.195 76.2157 312.08 77.2201 311.156 78.0034C309.85 79.1283 308.252 79.8715 306.554 80.1628C304.384 80.4842 301.933 80.3034 300.014 79.2388C298.346 78.2947 296.568 76.6878 296.347 74.7795C296.166 73.1625 297.301 71.4953 298.507 70.4005C300.174 68.894 302.355 68.0704 304.615 68.1006C306.916 68.201 309.156 69.4966 310.864 71.0433C312.01 72.0778 313.286 73.4538 313.235 75.0005Z"
                        fill="#F4E3D7" fill-opacity="0.91" stroke="black" stroke-width="0.4" stroke-miterlimit="3.2" />
                    <path id="path20"
                        d="M304.434 78.3349C303.882 78.365 303.329 78.2746 302.807 78.0838C302.284 77.893 301.812 77.5917 301.41 77.21C301.008 76.8284 300.697 76.3664 300.476 75.8541C300.255 75.352 300.144 74.7996 300.144 74.2472C300.144 73.6848 300.255 73.1424 300.476 72.6302C300.697 72.118 301.008 71.656 301.41 71.2743C301.812 70.8927 302.284 70.6014 302.807 70.4005C303.329 70.2097 303.882 70.1193 304.434 70.1495C305.489 70.1997 306.484 70.6516 307.207 71.4149C307.931 72.1782 308.343 73.1926 308.343 74.2472C308.343 75.2917 307.931 76.3061 307.207 77.0694C306.484 77.8327 305.489 78.2847 304.434 78.3349Z"
                        fill="#6C6753" fill-opacity="0.91" stroke="black" stroke-width="0.994691"
                        stroke-miterlimit="3.2" />
                    <path id="path21"
                        d="M304.495 75.8843C304.927 75.8843 305.339 75.7136 305.65 75.4022C305.961 75.1009 306.132 74.6791 306.132 74.2472C306.132 73.8154 305.961 73.3935 305.65 73.0922C305.339 72.7808 304.927 72.6101 304.495 72.6101C304.053 72.6101 303.641 72.7808 303.339 73.0922C303.028 73.3935 302.857 73.8154 302.857 74.2472C302.857 74.6791 303.028 75.1009 303.339 75.4022C303.641 75.7136 304.053 75.8843 304.495 75.8843Z"
                        fill="#241C1C" fill-opacity="0.91" stroke="black" stroke-width="0.976271"
                        stroke-miterlimit="3.2" />
                    <path id="path22"
                        d="M314.14 75.0607C314.109 74.428 313.436 73.4939 313.014 72.7507C312.723 72.2586 312.401 71.7966 312.06 71.3446C311.718 70.8826 311.387 70.4206 310.975 70.0189C310.452 69.5268 309.87 69.0849 309.237 68.7233C307.9 67.97 306.444 67.4377 304.927 67.1766C303.641 67.026 302.345 67.1866 301.129 67.6386C300.586 67.8194 300.034 68.0002 299.541 68.3015C298.878 68.7032 298.306 69.2757 297.743 69.8482C297.221 70.3403 296.748 70.9027 296.357 71.5154C295.854 72.2988 295.503 73.1726 295.352 74.0966"
                        stroke="#503C2C" stroke-width="1.63019" stroke-miterlimit="3.2" />
                </g>
                <g id="oeil_droite">
                    <path id="path26"
                        d="M258.038 74.4983C258.078 73.9158 258.741 73.0319 259.173 72.349C259.445 71.887 259.776 71.4652 260.128 71.0433C260.469 70.6215 260.801 70.1796 261.203 69.818C261.735 69.356 262.328 68.9442 262.941 68.6128C264.297 67.8997 265.754 67.4176 267.261 67.1766C268.537 67.036 269.833 67.1766 271.049 67.5984C271.601 67.7591 272.154 67.9298 272.646 68.2211C273.309 68.5927 273.882 69.125 274.434 69.6473C274.967 70.1093 275.429 70.6215 275.831 71.194C276.283 71.9372 276.806 72.9516 276.836 73.6044"
                        stroke="#503C2C" stroke-width="1.63019" stroke-miterlimit="3.2" />
                    <path id="path13"
                        d="M253.045 69.3962C252.281 67.8896 253.879 65.8106 254.743 64.3945C256.28 62.0343 258.55 60.2566 261.213 59.3326C263.694 58.4186 266.487 58.7601 269.11 59.0514C270.818 59.2221 272.536 59.6239 274.103 60.3068C275.399 60.8592 276.755 61.492 277.649 62.5666C278.383 63.4203 279.367 65.3085 278.855 66.3028C278.463 67.1063 277.157 66.6744 276.333 66.3028C275.158 65.7705 269.903 63.5308 268.406 63.9727C266.106 63.6513 263.765 63.7417 261.504 64.2439C261.504 64.2439 258.048 65.67 256.571 66.7849C255.697 67.4477 255.295 68.6831 254.321 69.1752C253.828 69.4263 253.306 69.8682 253.045 69.3962Z"
                        fill="#4C3B2A" stroke="#503C2C" stroke-width="0.110521" stroke-miterlimit="3.2" />
                    <path id="path23" fill-rule="evenodd" clip-rule="evenodd"
                        d="M258.942 74.9904C258.972 76.2057 260.098 77.2201 261.022 78.0034C262.328 79.1283 263.915 79.8715 265.623 80.1628C267.794 80.4842 270.245 80.3034 272.164 79.2388C273.832 78.2947 275.6 76.6777 275.831 74.7795C276.012 73.1524 274.877 71.4952 273.671 70.3905C271.993 68.8839 269.813 68.0604 267.562 68.1005C265.262 68.1909 263.021 69.4966 261.303 71.0333C260.168 72.0778 258.892 73.4537 258.942 74.9904Z"
                        fill="#F4E3D7" fill-opacity="0.91" stroke="black" stroke-width="0.4" stroke-miterlimit="3.2" />
                    <path id="path24"
                        d="M267.743 78.3449C268.828 78.3449 269.873 77.913 270.637 77.1497C271.4 76.3764 271.832 75.3319 271.832 74.2472C271.832 73.1625 271.4 72.1179 270.637 71.3546C269.873 70.5813 268.828 70.1494 267.743 70.1494C266.648 70.1494 265.613 70.5813 264.84 71.3546C264.066 72.1179 263.644 73.1625 263.644 74.2472C263.644 75.3319 264.066 76.3764 264.84 77.1497C265.613 77.913 266.648 78.3449 267.743 78.3449Z"
                        fill="#6C6753" stroke="black" stroke-width="0.994691" stroke-miterlimit="3.2" />
                    <path id="path25"
                        d="M267.743 75.8843C268.175 75.8843 268.587 75.7136 268.899 75.4022C269.2 75.1009 269.381 74.6791 269.381 74.2472C269.381 73.8154 269.2 73.3935 268.899 73.0922C268.587 72.7808 268.175 72.6101 267.743 72.6101C267.301 72.6101 266.889 72.7808 266.578 73.0922C266.276 73.3935 266.106 73.8154 266.106 74.2472C266.106 74.6791 266.276 75.1009 266.578 75.4022C266.889 75.7136 267.301 75.8843 267.743 75.8843Z"
                        fill="#241C1C" fill-opacity="0.91" stroke="black" stroke-width="0.976271"
                        stroke-miterlimit="3.2" />
                </g>
                <g id="bouche">
                    <path id="path14" fill-rule="evenodd" clip-rule="evenodd"
                        d="M286.993 111.669C295.553 111.75 305.128 112.292 305.128 114.923C305.128 117.806 295.623 124.766 286.591 124.766C277.549 124.766 267.623 118.117 267.623 115.235C267.623 111.247 283.698 111.639 286.993 111.669Z"
                        fill="#52110F" stroke="black" stroke-width="0.4" />
                    <path id="path15" fill-rule="evenodd" clip-rule="evenodd"
                        d="M296.759 122.255C293.584 123.812 290.118 124.665 286.591 124.756C282.834 124.756 278.925 123.621 275.64 122.074C278.142 121.271 281.809 120.779 285.918 120.779C290.349 120.779 294.267 121.351 296.759 122.255Z"
                        fill="white" />
                    <path id="path16" fill-rule="evenodd" clip-rule="evenodd"
                        d="M286.993 111.669C291.434 111.709 296.156 111.88 299.672 112.392C298.718 114.23 293.132 115.646 286.38 115.646C279.538 115.646 273.902 114.19 273.058 112.312C278.051 111.498 284.954 111.659 286.993 111.669Z"
                        fill="white" />
                    <path id="path17" fill-rule="evenodd" clip-rule="evenodd"
                        d="M280.603 119.091H292.167C292.458 119.091 292.75 119.162 293.021 119.292C293.282 119.423 293.513 119.614 293.704 119.845C293.885 120.076 294.006 120.347 294.066 120.638C294.126 120.929 294.126 121.231 294.056 121.512C291.785 121.05 288.962 120.779 285.918 120.779C283.256 120.779 280.774 120.98 278.674 121.351L278.644 121.05C278.644 119.975 279.528 119.091 280.593 119.091H280.603Z"
                        fill="#E8645F" />
                    <path id="path18" fill-rule="evenodd" clip-rule="evenodd"
                        d="M295.814 126.895C289.193 129.948 282.723 130.22 276.434 126.986C282.854 128 289.404 127.97 295.814 126.895Z"
                        fill="#DBAC93" />
                </g>
            </g>
        </g>
        <g id="epaule_gauche">
            <circle class="pivot" cx="348" cy="167.048" r="1" fill="#262626" />
            <g id="haut_bras_gauche">
                <path id="path100_2"
                    d="M333 167.048C333 175.048 340 182.048 348 182.048H428V152.048L348 152.048C340 152.048 333 159.048 333 167.048Z"
                    fill="#262626" />
                <g id="coude_gauche">
                    <circle class="pivot" cx="428" cy="167.048" r="1" fill="#262626" />
                    <g id="avant_bras_gauche">
                        <path id="path100"
                            d="M413 167.048C413 175.048 420 182.048 428 182.048H502V152.048L428 152.048C420 152.048 413 159.048 413 167.048Z"
                            fill="#262626" />
                        <path id="path99" d="M507.959 180.548L502 180.546L502.041 153.548L508 153.55L507.959 180.548Z"
                            fill="white" />
                        <g id="poignet_gauche">
                            <circle class="pivot" cx="505" cy="167.048" r="1" fill="white" />
                            <g id="main_gauche">
                                <path
                                    d="M567.815 155.727C567.378 155.01 566.962 154.65 566.481 154.396C565.95 154.137 565.355 154.007 564.462 153.76C562.747 153.63 561.014 153.568 559.29 153.582L557.78 153.565L553.001 153.53C550.424 153.505 547.85 153.467 545.286 153.446C543.192 153.42 541.116 153.383 539.023 153.298C538.116 153.267 537.677 153.267 537.295 153.325C536.939 153.369 536.61 153.479 535.92 153.704L535.635 153.81L535.599 153.508C535.508 152.891 535.449 152.567 535.472 152.207C535.519 151.73 535.613 151.272 535.742 150.816L535.764 150.734L535.841 150.666C536.608 150.016 537.459 149.49 538.382 149.107L538.943 148.84C541.593 147.449 543.228 146.321 544.598 143.694C545.098 141.5 544.586 139.694 543.56 137.676C543.056 137.344 542.829 137.21 542.586 137.13C542.339 137.042 542.079 137.031 541.472 137C539.32 137.573 537.87 138.502 536.077 139.895C532.572 142.485 528.905 144.833 525.113 146.965C522.063 148.783 519.009 150.754 517.534 154.019L517.531 154.032C516.784 155.399 515.654 155.601 514.369 155.996L514.36 156.001C513.362 156.232 512.381 156.393 511.391 156.538L508.939 156.891H502C502 163.531 502.045 170.112 502 176.755H509.114C510.476 176.534 511.203 176.392 511.898 176.476C512.591 176.537 513.251 176.78 514.471 177.253L514.553 177.275L514.588 177.336L514.905 177.765C515.115 178.048 515.302 178.332 515.499 178.634L515.799 179.073C517.284 181.264 519.6 181.936 522.134 182.586C525.501 183.217 528.818 183.242 532.274 183.268C538.189 183.294 544.081 183.979 549.851 185.313L550.42 185.458L551.551 185.717L553.124 186.102L553.657 186.245C554.618 186.51 555.61 186.607 556.594 186.512C557.489 186.423 558.369 186.146 559.411 185.671C559.639 185.447 559.836 185.207 559.984 184.924C560.106 184.635 560.181 184.326 560.23 184.009C560.213 183.58 560.156 183.162 560.042 182.744C559.942 182.431 559.754 182.125 559.36 181.463C556.201 179.672 552.589 178.975 548.997 178.254L546.062 177.651L544.77 177.392C544.216 177.273 543.913 177.229 543.602 177.109C543.29 176.988 542.98 176.832 542.392 176.514L542.556 176.038L549.046 177.198L551.243 177.604L553.372 177.992L555.46 178.368C556.955 178.637 558.413 178.903 559.901 179.199L561.212 179.47L562.282 179.683C563.68 179.846 565.077 179.525 566.254 178.764C566.592 178.269 566.714 178.06 566.793 177.818C566.892 177.449 566.94 177.052 566.94 176.671C566.833 176.167 566.682 175.665 566.474 175.185C566.296 174.837 566.034 174.503 565.499 173.796C561.461 172.202 556.846 171.748 552.53 170.972C549.622 170.457 546.744 169.752 543.939 168.854L544.054 168.372L545.455 168.579C547.851 168.928 550.24 169.246 552.637 169.559L554.335 169.78C556.182 170.018 558.014 170.231 559.845 170.444L561.653 170.694C564.806 171.055 567.105 171.218 569.922 169.857C570.362 169.279 570.562 169.025 570.702 168.748C570.825 168.481 570.898 168.208 571.046 167.603C570.889 167.012 570.593 166.479 570.189 166.019C569.825 165.629 569.345 165.317 568.633 164.885C566.693 164.123 564.637 163.682 562.542 163.575L561.243 163.425C555.396 162.817 549.533 162.322 543.665 161.818L543.658 161.326C546.419 160.968 549.189 160.766 551.973 160.648L553.023 160.607C554.465 160.525 555.922 160.469 557.371 160.418L560.574 160.266L562.478 160.183C564.081 160.02 565.351 159.76 566.809 159.125C567.188 158.641 567.506 158.111 567.713 157.53C567.853 157.033 567.902 156.497 567.815 155.727Z"
                                    fill="#DD9974" stroke="black" stroke-width="0.4" />
                                <path
                                    d="M534.943 151.451L533.994 151.767C533.704 152.605 533.704 152.605 533.453 153.731L533.142 154.973L532.548 157.544C531.843 160.342 530.967 161.805 528.522 163.39C527.161 164.153 525.737 164.825 524.283 165.388L522.713 166.028L521.522 166.485L522.313 167.276C523.949 166.77 525.598 166.245 527.233 165.717L528.65 165.291L530.004 164.856L531.248 164.472C532.491 163.824 532.753 163.338 533.217 162.042C533.459 160.921 533.662 159.672 533.688 159.519C533.923 158.644 534.471 156.353 534.945 156.195C535.473 153.05 535.473 153.05 534.943 151.451Z"
                                    fill="#B67255" />
                                <path
                                    d="M541.856 157.066C541.529 159.299 540.992 163.188 540.805 165.444C540.562 168.263 540.023 171.011 539.486 173.78C539.288 175.338 538.96 177.549 539.44 178.98C541.005 174.231 541.562 169.556 542.587 164.75C542.744 164.163 542.499 162.399 542.665 161.807C542.577 160.033 542.863 158.529 541.861 157.075L541.856 157.066Z"
                                    fill="#BB7859" />
                            </g>
                        </g>
                    </g>
                </g>
            </g>
        </g>
        <g id="epaule_droite">
            <circle class="pivot" cx="224.046" cy="167.048" r="1" fill="#262626" />
            <g id="haut_bras_droite">
                <path id="path100_4"
                    d="M239.046 167.048C239.046 175.048 232.046 182.048 224.046 182.048H144.046V152.048L224.046 152.048C232.046 152.048 239.046 159.048 239.046 167.048Z"
                    fill="#262626" />
                <g id="coude_droite">
                    <circle class="pivot" cx="144.046" cy="167.048" r="1" fill="#262626" />
                    <g id="avant_bras_droite">
                        <path id="path100_3"
                            d="M159.046 167.048C159.046 175.048 152.046 182.048 144.046 182.048H70.0457V152.048L144.046 152.048C152.046 152.048 159.046 159.048 159.046 167.048Z"
                            fill="#262626" />
                        <path id="path99_2"
                            d="M64.0862 180.548L70.0456 180.546L70.0051 153.548L64.0456 153.55L64.0862 180.548Z"
                            fill="white" />
                        <g id="poignet_droite">
                            <circle class="pivot" cx="67.046" cy="167.048" r="1" fill="white" />
                            <g id="main_droite">
                                <path
                                    d="M4.23063 155.727C4.66795 155.01 5.08385 154.65 5.565 154.396C6.09579 154.137 6.69049 154.007 7.58341 153.76C9.29817 153.63 11.0312 153.569 12.7553 153.582L14.2661 153.566L19.0441 153.53C21.6217 153.505 24.1956 153.467 26.7595 153.446C28.8534 153.42 30.9299 153.383 33.0227 153.298C33.9296 153.267 34.3687 153.267 34.7505 153.326C35.1063 153.369 35.4357 153.479 36.1256 153.704L36.4104 153.811L36.4465 153.508C36.5373 152.891 36.597 152.567 36.5738 152.207C36.5263 151.73 36.4328 151.272 36.3034 150.816L36.2815 150.734L36.2048 150.667C35.4375 150.016 34.5865 149.49 33.6641 149.107L33.1022 148.841C30.4528 147.449 28.818 146.321 27.448 143.694C26.9479 141.5 27.4595 139.694 28.4856 137.677C28.9895 137.344 29.2171 137.21 29.4593 137.13C29.7065 137.042 29.967 137.031 30.5737 137C32.7256 137.573 34.1752 138.502 35.9688 139.895C39.4736 142.485 43.1409 144.833 46.9331 146.965C49.9824 148.783 53.0361 150.754 54.5112 154.019L54.5149 154.033C55.2617 155.399 56.392 155.601 57.6765 155.996L57.6852 156.001C58.6839 156.232 59.6643 156.394 60.6547 156.538L63.1066 156.891H70C70.0002 163.531 69.9551 170.113 70 176.755H62.9313C61.5691 176.534 60.8429 176.392 60.1479 176.476C59.4543 176.537 58.7946 176.78 57.5745 177.253L57.4925 177.275L57.4575 177.336L57.1405 177.765C56.9309 178.048 56.7436 178.332 56.5462 178.634L56.2466 179.073C54.762 181.265 52.4458 181.936 49.9113 182.586C46.5447 183.217 43.2278 183.242 39.7721 183.268C33.8567 183.294 27.9644 183.979 22.1945 185.313L21.6258 185.458L20.4947 185.717L18.9214 186.102L18.3887 186.245C17.4275 186.51 16.436 186.607 15.4515 186.512C14.5564 186.423 13.677 186.146 12.6347 185.671C12.4062 185.447 12.2101 185.207 12.0613 184.924C11.9398 184.635 11.8642 184.326 11.816 184.009C11.8328 183.58 11.8893 183.162 12.004 182.744C12.1034 182.432 12.292 182.125 12.6857 181.463C15.8442 179.672 19.4568 178.975 23.0483 178.254L25.9832 177.651L27.2756 177.393C27.8293 177.273 28.1321 177.229 28.444 177.109C28.7559 176.989 29.0654 176.832 29.6535 176.514L29.4894 176.038L22.9997 177.199L20.8024 177.604L18.6735 177.992L16.5855 178.368C15.0909 178.637 13.6323 178.903 12.1451 179.199L10.834 179.47L9.7639 179.684C8.36529 179.846 6.96884 179.525 5.7914 178.764C5.45375 178.269 5.33188 178.06 5.25233 177.818C5.15351 177.449 5.10564 177.052 5.10609 176.671C5.21253 176.167 5.36362 175.665 5.57166 175.185C5.74934 174.837 6.0113 174.503 6.54656 173.796C10.5848 172.202 15.1997 171.748 19.5159 170.973C22.4232 170.457 25.3015 169.752 28.1062 168.854L27.9917 168.372L26.5904 168.579C24.195 168.928 21.8059 169.246 19.4081 169.559L17.7103 169.78C15.8636 170.019 14.0319 170.231 12.2002 170.444L10.3931 170.694C7.23971 171.056 4.94063 171.218 2.12363 169.857C1.68339 169.279 1.48358 169.026 1.34341 168.748C1.22057 168.481 1.14737 168.208 0.999977 167.603C1.15641 167.012 1.45276 166.479 1.85668 166.019C2.2206 165.629 2.70078 165.317 3.41219 164.885C5.35302 164.123 7.40901 163.682 9.50322 163.575L10.8025 163.425C16.6498 162.817 22.5127 162.322 28.3806 161.819L28.3877 161.326C25.6271 160.968 22.857 160.766 20.073 160.648L19.0225 160.607C17.5803 160.525 16.1232 160.469 14.6747 160.418L11.4715 160.266L9.56791 160.183C7.96485 160.02 6.69464 159.76 5.23632 159.126C4.85769 158.641 4.54004 158.112 4.33301 157.53C4.19258 157.033 4.1441 156.497 4.23063 155.727Z"
                                    fill="#DD9974" stroke="black" stroke-width="0.4" />
                                <path
                                    d="M37.1031 151.451L38.0518 151.768C38.342 152.605 38.342 152.605 38.5925 153.731L38.9033 154.973L39.4971 157.544C40.2028 160.342 41.0782 161.806 43.5234 163.391C44.8844 164.153 46.309 164.826 47.7627 165.388L49.3326 166.029L50.5238 166.485L49.7327 167.276C48.0964 166.77 46.4478 166.245 44.8129 165.717L43.3958 165.291L42.042 164.856L40.7972 164.472C39.5548 163.824 39.2927 163.338 38.8284 162.042C38.5866 160.921 38.3837 159.673 38.3571 159.519C38.1229 158.644 37.5749 156.353 37.1006 156.195C36.5725 153.05 36.5725 153.05 37.1031 151.451Z"
                                    fill="#B67255" />
                                <path
                                    d="M30.1891 157.066C30.5166 159.299 31.0537 163.189 31.2409 165.444C31.4838 168.264 32.0223 171.011 32.5595 173.781C32.7572 175.338 33.0859 177.549 32.6057 178.98C31.0405 174.232 30.4833 169.557 29.4591 164.751C29.3017 164.163 29.5464 162.399 29.3804 161.807C29.4689 160.034 29.1829 158.529 30.1841 157.075L30.1891 157.066Z"
                                    fill="#BB7859" />
                            </g>
                        </g>
                    </g>
                </g>
            </g>
        </g>
        <g id="hanche_droite">
            <circle class="pivot" cx="257" cy="313" r="1" fill="#262626" />
            <g id="cuisse_droite">
                <path id="path39_2" d="M239 425V313H257H275V425H239Z" fill="#262626" />
                <g id="genou_droite">
                    <circle class="pivot" cx="257" cy="425" r="1" fill="#262626" />
                    <g id="tibia_droite">
                        <path id="os_tibia_gauche_2"
                            d="M257.08 407C266.976 407 275 414.775 275 424.7V523H239V424.703C239.149 414.898 247.273 407 257.08 407Z"
                            fill="#262626" />
                        <path id="chaussette_droite" d="M272 523H242V539H272V523Z" fill="white" />
                        <g id="cheville_droite">
                            <circle class="pivot" cx="257" cy="531" r="1" fill="white" />
                            <g id="pied_droite">
                                <path id="path1-5_2"
                                    d="M276.838 552.361L276.769 560.539L251.14 560.49V555.954C243.262 556.966 235.154 559.646 227.276 560.539C222.12 561.155 216.197 561.473 204.21 559.368C200.6 558.793 197.13 558.008 193.809 557.026C187.476 555.1 181.294 553.165 179 551.239C179.259 550.147 179.339 548.668 179.868 548.083C182.77 549.671 186.23 551.14 190.498 552.46C196.791 554.653 203.422 556.222 210.542 556.917C217.553 558.028 223.885 557.84 229.809 556.917C244.538 553.72 249.484 552.877 251.628 552.768C260.105 552.162 268.472 552.45 276.838 552.361Z"
                                    fill="black" />
                                <path id="path2-3_2"
                                    d="M276.469 552.361C276.729 550.197 277.028 547.348 276.998 545.353C276.998 543.209 276.499 540.857 275.941 538.137C275.372 535.417 274.734 532.41 273.448 529.085L269.569 530.395C265.799 531.784 262.029 533.224 258.3 533.571C255.926 533.819 253.473 533.502 251.03 532.608C249.365 532.013 247.709 531.139 246.124 529.998C245.555 527.248 244.129 524.916 241.865 523L238.325 525.164C237.867 525.015 236.929 525.094 235.533 525.412L221.472 535.02L220.156 536.4C217.932 537.839 215.638 539.07 213.335 540.062C209.645 541.661 205.905 542.524 202.176 542.673C198.446 542.693 195.016 541.551 191.096 541.541C188.194 541.67 185.901 542.226 184.235 543.199C182.959 543.963 182.052 544.817 181.523 545.73C181.034 546.554 180.586 547.427 180.506 548.42C182.241 549.403 183.976 550.097 185.671 550.782C187.935 551.646 190.418 552.47 192.832 553.234C193.958 553.621 196.98 554.594 201.537 555.537C202.485 555.845 208.967 556.857 212.507 557.204C215.289 557.562 218.121 557.711 220.874 557.681C224.833 557.82 228.672 557.085 231.614 556.629C236.361 555.586 241.078 554.644 245.894 553.591C251.249 552.718 256.754 552.301 262.369 552.509C267.085 552.47 271.752 552.38 276.469 552.361Z"
                                    fill="#1F1A1A" stroke="black" stroke-width="0.399984" />
                                <path id="path7-5_2"
                                    d="M251.06 552.807C250.382 551.328 248.766 549.194 246.652 547.676C245.406 546.782 243.94 546.117 242.244 545.681C240.17 545.184 238.096 545.105 236.211 545.135C235.613 545.075 233.918 545.254 231.125 545.671M231.125 545.671L223.626 546.485C223.546 545.522 223.247 544.628 222.798 543.805L221.253 540.479C220.724 539.467 220.345 538.306 220.764 537.164C220.983 536.519 223.477 534.325 224.185 533.839L234.217 527.04C234.446 526.891 235.493 526.305 236.361 526.176C237.458 525.978 238.475 526.117 239.452 526.573C241.377 527.338 242.653 528.777 244.169 530.008C245.934 531.417 248.118 532.668 250.801 533.76C253.324 534.941 256.794 535.129 261.202 534.355C264.443 533.591 268.133 532.33 272.281 530.583M231.125 545.671L230.337 543.616C229.689 542.137 229.35 540.668 229.28 539.199C229.5 537.77 230.068 536.598 231.016 535.685C232.482 534.375 234.067 533.243 235.762 532.261L240.021 529.898M272.281 530.583L273.787 529.918M272.281 530.583C272.58 530.961 272.849 531.596 273.149 532.499M240.021 529.898L242.733 528.757M240.021 529.898L244.957 533.253C246.652 534.325 248.726 535.258 251.18 536.033C253.094 536.638 255.208 536.926 257.512 536.896C259.387 536.817 261.162 536.559 262.897 536.142L268.89 534.286L273.149 532.499M273.149 532.499L274.505 531.874M273.149 532.499C273.747 535.05 273.567 536.737 272.66 537.551C270.965 539.07 270.925 538.584 266.288 541.055C263.874 542.336 262.638 544.996 262.139 547.06C261.84 548.668 261.95 550.852 262.369 552.509"
                                    stroke="#FDFBFE" stroke-opacity="0.95724" stroke-width="0.099998" />
                                <path id="path22-2_2"
                                    d="M223.437 537.174L221.472 535.02M228.074 534.683L226.259 531.745M231.574 531.804L229.729 529.382M234.097 529.968L232.332 527.606M237.378 528.499L235.194 525.64"
                                    stroke="#FDFBFE" stroke-opacity="0.95724" stroke-width="0.49999" />
                            </g>
                        </g>
                    </g>
                </g>
            </g>
        </g>
        <g id="hanche_gauche">
            <circle class="pivot" cx="314" cy="313" r="1" fill="#262626" />
            <g id="cuisse_gauche">
                <path id="path39" d="M296 425V313H314H332V425H296Z" fill="#262626" />
                <g id="genou_gauche">
                    <circle class="pivot" cx="314" cy="425" r="1" fill="#262626" />
                    <g id="tibia_gauche">
                        <path id="os_tibia_gauche"
                            d="M314.08 407C323.976 407 332 414.775 332 424.7V523H296V424.703C296.149 414.898 304.273 407 314.08 407Z"
                            fill="#262626" />
                        <path id="chaussette_gauche" d="M299 523H329V539H299V523Z" fill="white" />
                        <g id="cheville_gauche">
                            <circle class="pivot" cx="314" cy="531" r="1" fill="white" />
                            <g id="pied_gauche">
                                <path id="path1-5"
                                    d="M294.162 552.361L294.231 560.539L319.86 560.49V555.954C327.738 556.966 335.846 559.646 343.724 560.539C348.88 561.155 354.803 561.473 366.79 559.368C370.4 558.793 373.87 558.008 377.191 557.026C383.524 555.1 389.706 553.165 392 551.239C391.741 550.147 391.661 548.668 391.132 548.083C388.23 549.671 384.77 551.14 380.502 552.46C374.209 554.653 367.578 556.222 360.458 556.917C353.447 558.028 347.115 557.84 341.191 556.917C326.462 553.72 321.516 552.877 319.372 552.768C310.895 552.162 302.528 552.45 294.162 552.361Z"
                                    fill="black" />
                                <path id="path2-3"
                                    d="M294.531 552.361C294.271 550.197 293.972 547.348 294.002 545.353C294.002 543.209 294.501 540.857 295.059 538.137C295.628 535.417 296.266 532.41 297.552 529.085L301.431 530.395C305.201 531.784 308.971 533.224 312.7 533.571C315.074 533.819 317.527 533.502 319.97 532.608C321.635 532.013 323.291 531.139 324.876 529.998C325.445 527.248 326.871 524.916 329.135 523L332.675 525.164C333.133 525.015 334.071 525.094 335.467 525.412L349.528 535.02L350.844 536.4C353.068 537.839 355.362 539.07 357.665 540.062C361.355 541.661 365.095 542.524 368.824 542.673C372.554 542.693 375.984 541.551 379.904 541.541C382.806 541.67 385.099 542.226 386.765 543.199C388.041 543.963 388.948 544.817 389.477 545.73C389.966 546.554 390.414 547.427 390.494 548.42C388.759 549.403 387.024 550.097 385.329 550.782C383.065 551.646 380.582 552.47 378.168 553.234C377.042 553.621 374.02 554.594 369.463 555.537C368.515 555.845 362.033 556.857 358.493 557.204C355.711 557.562 352.879 557.711 350.126 557.681C346.167 557.82 342.328 557.085 339.386 556.629C334.639 555.586 329.922 554.644 325.106 553.591C319.751 552.718 314.246 552.301 308.631 552.509C303.915 552.47 299.248 552.38 294.531 552.361Z"
                                    fill="#1F1A1A" stroke="black" stroke-width="0.399984" />
                                <path id="path7-5"
                                    d="M319.94 552.807C320.618 551.328 322.234 549.194 324.348 547.676C325.594 546.782 327.06 546.117 328.756 545.681C330.83 545.184 332.904 545.105 334.789 545.135C335.387 545.075 337.082 545.254 339.875 545.671M339.875 545.671L347.374 546.485C347.454 545.522 347.753 544.628 348.202 543.805L349.747 540.479C350.276 539.467 350.655 538.306 350.236 537.164C350.017 536.519 347.523 534.325 346.815 533.839L336.783 527.04C336.554 526.891 335.507 526.305 334.639 526.176C333.542 525.978 332.525 526.117 331.548 526.573C329.623 527.338 328.347 528.777 326.831 530.008C325.066 531.417 322.882 532.668 320.199 533.76C317.676 534.941 314.206 535.129 309.798 534.355C306.557 533.591 302.867 532.33 298.719 530.583M339.875 545.671L340.663 543.616C341.311 542.137 341.65 540.668 341.72 539.199C341.5 537.77 340.932 536.598 339.984 535.685C338.518 534.375 336.933 533.243 335.238 532.261L330.979 529.898M298.719 530.583L297.213 529.918M298.719 530.583C298.42 530.961 298.151 531.596 297.851 532.499M330.979 529.898L328.267 528.757M330.979 529.898L326.043 533.253C324.348 534.325 322.274 535.258 319.82 536.033C317.906 536.638 315.792 536.926 313.488 536.896C311.613 536.817 309.838 536.559 308.103 536.142L302.11 534.286L297.851 532.499M297.851 532.499L296.495 531.874M297.851 532.499C297.253 535.05 297.433 536.737 298.34 537.551C300.035 539.07 300.075 538.584 304.712 541.055C307.126 542.336 308.362 544.996 308.861 547.06C309.16 548.668 309.05 550.852 308.631 552.509"
                                    stroke="#FDFBFE" stroke-opacity="0.95724" stroke-width="0.099998" />
                                <path id="path22-2"
                                    d="M347.563 537.174L349.528 535.02M342.926 534.683L344.741 531.745M339.426 531.804L341.271 529.382M336.903 529.968L338.668 527.606M333.622 528.499L335.806 525.64"
                                    stroke="#FDFBFE" stroke-opacity="0.95724" stroke-width="0.49999" />
                            </g>
                        </g>
                    </g>
                </g>
            </g>
        </g>
    </g>
</svg>
